<svg xmlns="http://www.w3.org/2000/svg" xmlns:xlink="http://www.w3.org/1999/xlink" width="350" zoomAndPan="magnify" viewBox="0 0 262.5 112.499997" height="150" preserveAspectRatio="xMidYMid meet" version="1.0"><defs><g/><clipPath id="8cb0fb4165"><path d="M 41 39 L 43.722656 39 L 43.722656 43 L 41 43 Z M 41 39 " clip-rule="nonzero"/></clipPath><clipPath id="45a189660b"><path d="M 41 43 L 43.722656 43 L 43.722656 46 L 41 46 Z M 41 43 " clip-rule="nonzero"/></clipPath><clipPath id="fdc8938dcf"><path d="M 0.332031 39 L 3 39 L 3 43 L 0.332031 43 Z M 0.332031 39 " clip-rule="nonzero"/></clipPath><clipPath id="46cd685b9e"><path d="M 0.332031 43 L 3 43 L 3 46 L 0.332031 46 Z M 0.332031 43 " clip-rule="nonzero"/></clipPath><clipPath id="e914ae5741"><path d="M 8 30 L 36 30 L 36 82.308594 L 8 82.308594 Z M 8 30 " clip-rule="nonzero"/></clipPath></defs><path stroke-linecap="round" transform="matrix(0.0200694, 0, 0, -0.0202127, -20.640644, 99.09643)" fill="none" stroke-linejoin="round" d="M 1938.198888 1983.920086 L 2311.707814 1983.920086 L 2311.707814 2173.119108 L 1938.198888 2173.119108 Z M 1938.198888 1983.920086 " stroke="#181821" stroke-width="28" stroke-opacity="1" stroke-miterlimit="10"/><path stroke-linecap="round" transform="matrix(0.0200694, 0, 0, -0.0202127, -20.640644, 99.09643)" fill="none" stroke-linejoin="round" d="M 2426.349168 2091.177959 L 2426.349168 2427.445883 L 2680.350808 2681.579401 L 3084.612424 2681.579401 " stroke="#181821" stroke-width="28" stroke-opacity="1" stroke-miterlimit="10"/><path stroke-linecap="round" transform="matrix(0.0200694, 0, 0, -0.0202127, -20.640644, 99.09643)" fill="none" stroke-linejoin="round" d="M 2311.707814 2091.177959 L 2755.480796 2091.177959 L 2755.480796 2456.047983 L 2962.964128 2456.047983 " stroke="#181821" stroke-width="28" stroke-opacity="1" stroke-miterlimit="10"/><path stroke-linecap="round" transform="matrix(0.0200694, 0, 0, -0.0202127, -20.640644, 99.09643)" fill="none" stroke-linejoin="round" d="M 2368.931172 2091.177959 L 2755.480796 1692.10137 L 2912.942349 1692.10137 " stroke="#181821" stroke-width="28" stroke-opacity="1" stroke-miterlimit="10"/><path stroke-linecap="round" transform="matrix(0.0200694, 0, 0, -0.0202127, -20.640644, 99.09643)" fill="none" stroke-linejoin="round" d="M 2573.494946 1879.94759 L 2573.494946 1404.147802 L 2877.129091 1404.147802 " stroke="#181821" stroke-width="28" stroke-opacity="1" stroke-miterlimit="10"/><path stroke-linecap="round" transform="matrix(0.0200694, 0, 0, -0.0202127, -20.640644, 99.09643)" fill="none" stroke-linejoin="round" d="M 2313.264912 1983.920086 L 2313.264912 1368.395178 L 2539.238786 1142.670502 " stroke="#181821" stroke-width="28" stroke-opacity="1" stroke-miterlimit="10"/><path stroke-linecap="round" transform="matrix(0.0200694, 0, 0, -0.0202127, -20.640644, 99.09643)" fill="none" stroke-linejoin="round" d="M 2311.707814 2173.119108 L 2311.707814 2899.187265 " stroke="#181821" stroke-width="28" stroke-opacity="1" stroke-miterlimit="10"/><path stroke-linecap="round" transform="matrix(0.0200694, 0, 0, -0.0202127, -20.640644, 99.09643)" fill="none" stroke-linejoin="round" d="M 2691.055858 1404.147802 L 2691.055858 1189.4388 L 2848.517412 1032.127253 " stroke="#181821" stroke-width="28" stroke-opacity="1" stroke-miterlimit="10"/><path stroke-linecap="round" transform="matrix(0.0200694, 0, 0, -0.0202127, -20.640644, 99.09643)" fill="none" stroke-linejoin="round" d="M 2725.312018 2681.579401 L 2915.083359 2871.358195 L 3084.612424 2871.358195 " stroke="#181821" stroke-width="28" stroke-opacity="1" stroke-miterlimit="10"/><path stroke-linecap="round" transform="matrix(0.0200694, 0, 0, -0.0202127, -20.640644, 99.09643)" fill="none" stroke-linejoin="round" d="M 2352.387004 2939.771325 C 2352.387004 2917.353463 2334.0911 2899.187265 2311.707814 2899.187265 C 2289.324528 2899.187265 2271.223261 2917.353463 2271.223261 2939.771325 C 2271.223261 2962.189186 2289.324528 2980.355385 2311.707814 2980.355385 C 2334.0911 2980.355385 2352.387004 2962.189186 2352.387004 2939.771325 Z M 2352.387004 2939.771325 " stroke="#181821" stroke-width="28" stroke-opacity="1" stroke-miterlimit="10"/><path stroke-linecap="round" transform="matrix(0.0200694, 0, 0, -0.0202127, -20.640644, 99.09643)" fill="none" stroke-linejoin="round" d="M 2810.368506 3252.848358 C 2810.368506 3230.430496 2792.072603 3212.264298 2769.689316 3212.264298 C 2747.30603 3212.264298 2729.204764 3230.430496 2729.204764 3252.848358 C 2729.204764 3275.26622 2747.30603 3293.432418 2769.689316 3293.432418 C 2792.072603 3293.432418 2810.368506 3275.26622 2810.368506 3252.848358 Z M 2810.368506 3252.848358 " stroke="#181821" stroke-width="28" stroke-opacity="1" stroke-miterlimit="10"/><g clip-path="url(#8cb0fb4165)"><path stroke-linecap="round" transform="matrix(0.0200694, 0, 0, -0.0202127, -20.640644, 99.09643)" fill="none" stroke-linejoin="round" d="M 3193.220022 2871.164938 C 3193.220022 2848.747076 3174.924118 2830.580878 3152.540832 2830.580878 C 3130.157545 2830.580878 3112.056279 2848.747076 3112.056279 2871.164938 C 3112.056279 2893.582799 3130.157545 2911.748998 3152.540832 2911.748998 C 3174.924118 2911.748998 3193.220022 2893.582799 3193.220022 2871.164938 Z M 3193.220022 2871.164938 " stroke="#181821" stroke-width="28" stroke-opacity="1" stroke-miterlimit="10"/></g><g clip-path="url(#45a189660b)"><path stroke-linecap="round" transform="matrix(0.0200694, 0, 0, -0.0202127, -20.640644, 99.09643)" fill="none" stroke-linejoin="round" d="M 3193.220022 2681.579401 C 3193.220022 2659.161539 3174.924118 2640.995341 3152.540832 2640.995341 C 3130.157545 2640.995341 3112.056279 2659.161539 3112.056279 2681.579401 C 3112.056279 2703.997263 3130.157545 2722.163461 3152.540832 2722.163461 C 3174.924118 2722.163461 3193.220022 2703.997263 3193.220022 2681.579401 Z M 3193.220022 2681.579401 " stroke="#181821" stroke-width="28" stroke-opacity="1" stroke-miterlimit="10"/></g><path stroke-linecap="round" transform="matrix(0.0200694, 0, 0, -0.0202127, -20.640644, 99.09643)" fill="none" stroke-linejoin="round" d="M 3071.571726 2456.047983 C 3071.571726 2433.630121 3053.275823 2415.463923 3030.892536 2415.463923 C 3008.50925 2415.463923 2990.407984 2433.630121 2990.407984 2456.047983 C 2990.407984 2478.465844 3008.50925 2496.632042 3030.892536 2496.632042 C 3053.275823 2496.632042 3071.571726 2478.465844 3071.571726 2456.047983 Z M 3071.571726 2456.047983 " stroke="#181821" stroke-width="28" stroke-opacity="1" stroke-miterlimit="10"/><path stroke-linecap="round" transform="matrix(0.0200694, 0, 0, -0.0202127, -20.640644, 99.09643)" fill="none" stroke-linejoin="round" d="M 2974.642365 1404.147802 C 2974.642365 1381.72994 2956.541098 1363.563742 2934.157812 1363.563742 C 2911.774526 1363.563742 2893.673259 1381.72994 2893.673259 1404.147802 C 2893.673259 1426.565664 2911.774526 1444.731862 2934.157812 1444.731862 C 2956.541098 1444.731862 2974.642365 1426.565664 2974.642365 1404.147802 Z M 2974.642365 1404.147802 " stroke="#181821" stroke-width="28" stroke-opacity="1" stroke-miterlimit="10"/><path stroke-linecap="round" transform="matrix(0.0200694, 0, 0, -0.0202127, -20.640644, 99.09643)" fill="none" stroke-linejoin="round" d="M 2993.911455 1692.10137 C 2993.911455 1669.683508 2975.810188 1651.51731 2953.426902 1651.51731 C 2931.043616 1651.51731 2912.942349 1669.683508 2912.942349 1692.10137 C 2912.942349 1714.712489 2931.043616 1732.68543 2953.426902 1732.68543 C 2975.810188 1732.68543 2993.911455 1714.712489 2993.911455 1692.10137 Z M 2993.911455 1692.10137 " stroke="#181821" stroke-width="28" stroke-opacity="1" stroke-miterlimit="10"/><path stroke-linecap="round" transform="matrix(0.0200694, 0, 0, -0.0202127, -20.640644, 99.09643)" fill="none" stroke-linejoin="round" d="M 2923.647399 999.27349 C 2923.647399 976.855629 2905.546133 958.689431 2883.162846 958.689431 C 2860.584923 958.689431 2842.483656 976.855629 2842.483656 999.27349 C 2842.483656 1021.691352 2860.584923 1039.85755 2883.162846 1039.85755 C 2905.546133 1039.85755 2923.647399 1021.691352 2923.647399 999.27349 Z M 2923.647399 999.27349 " stroke="#181821" stroke-width="28" stroke-opacity="1" stroke-miterlimit="10"/><path stroke-linecap="round" transform="matrix(0.0200694, 0, 0, -0.0202127, -20.640644, 99.09643)" fill="none" stroke-linejoin="round" d="M 2604.636909 1102.086442 C 2604.636909 1079.668581 2586.535643 1061.502382 2563.957719 1061.502382 C 2541.574433 1061.502382 2523.473167 1079.668581 2523.473167 1102.086442 C 2523.473167 1124.504304 2541.574433 1142.670502 2563.957719 1142.670502 C 2586.535643 1142.670502 2604.636909 1124.504304 2604.636909 1102.086442 Z M 2604.636909 1102.086442 " stroke="#181821" stroke-width="28" stroke-opacity="1" stroke-miterlimit="10"/><path stroke-linecap="round" transform="matrix(0.0200694, 0, 0, -0.0202127, -20.640644, 99.09643)" fill="none" stroke-linejoin="round" d="M 2311.707814 2604.083172 L 2594.126497 2886.432275 L 2594.126497 3076.211069 L 2739.131265 3221.347397 " stroke="#181821" stroke-width="28" stroke-opacity="1" stroke-miterlimit="10"/><path stroke-linecap="round" transform="matrix(0.0200694, 0, 0, -0.0202127, -20.640644, 99.09643)" fill="none" stroke-linejoin="round" d="M 1825.698544 2091.177959 L 1825.698544 2427.445883 L 1571.696903 2681.579401 L 1167.435288 2681.579401 " stroke="#181821" stroke-width="28" stroke-opacity="1" stroke-miterlimit="10"/><path stroke-linecap="round" transform="matrix(0.0200694, 0, 0, -0.0202127, -20.640644, 99.09643)" fill="none" stroke-linejoin="round" d="M 1940.14526 2091.177959 L 1496.566916 2091.177959 L 1496.566916 2456.047983 L 1289.083583 2456.047983 " stroke="#181821" stroke-width="28" stroke-opacity="1" stroke-miterlimit="10"/><path stroke-linecap="round" transform="matrix(0.0200694, 0, 0, -0.0202127, -20.640644, 99.09643)" fill="none" stroke-linejoin="round" d="M 1882.921902 2091.177959 L 1496.566916 1692.10137 L 1339.105363 1692.10137 " stroke="#181821" stroke-width="28" stroke-opacity="1" stroke-miterlimit="10"/><path stroke-linecap="round" transform="matrix(0.0200694, 0, 0, -0.0202127, -20.640644, 99.09643)" fill="none" stroke-linejoin="round" d="M 1678.552766 1879.94759 L 1678.552766 1404.147802 L 1374.918621 1404.147802 " stroke="#181821" stroke-width="28" stroke-opacity="1" stroke-miterlimit="10"/><path stroke-linecap="round" transform="matrix(0.0200694, 0, 0, -0.0202127, -20.640644, 99.09643)" fill="none" stroke-linejoin="round" d="M 1938.588162 1983.920086 L 1938.588162 1368.395178 L 1712.808926 1142.670502 " stroke="#181821" stroke-width="28" stroke-opacity="1" stroke-miterlimit="10"/><path stroke-linecap="round" transform="matrix(0.0200694, 0, 0, -0.0202127, -20.640644, 99.09643)" fill="none" stroke-linejoin="round" d="M 1940.14526 2173.119108 L 1940.14526 2899.187265 " stroke="#181821" stroke-width="28" stroke-opacity="1" stroke-miterlimit="10"/><path stroke-linecap="round" transform="matrix(0.0200694, 0, 0, -0.0202127, -20.640644, 99.09643)" fill="none" stroke-linejoin="round" d="M 1560.991853 1404.147802 L 1560.991853 1189.4388 L 1403.5303 1032.127253 " stroke="#181821" stroke-width="28" stroke-opacity="1" stroke-miterlimit="10"/><path stroke-linecap="round" transform="matrix(0.0200694, 0, 0, -0.0202127, -20.640644, 99.09643)" fill="none" stroke-linejoin="round" d="M 1526.735693 2681.579401 L 1336.964353 2871.358195 L 1167.435288 2871.358195 " stroke="#181821" stroke-width="28" stroke-opacity="1" stroke-miterlimit="10"/><path stroke-linecap="round" transform="matrix(0.0200694, 0, 0, -0.0202127, -20.640644, 99.09643)" fill="none" stroke-linejoin="round" d="M 1899.660708 2939.771325 C 1899.660708 2917.353463 1917.761974 2899.187265 1940.14526 2899.187265 C 1962.723184 2899.187265 1980.82445 2917.353463 1980.82445 2939.771325 C 1980.82445 2962.189186 1962.723184 2980.355385 1940.14526 2980.355385 C 1917.761974 2980.355385 1899.660708 2962.189186 1899.660708 2939.771325 Z M 1899.660708 2939.771325 " stroke="#181821" stroke-width="28" stroke-opacity="1" stroke-miterlimit="10"/><path stroke-linecap="round" transform="matrix(0.0200694, 0, 0, -0.0202127, -20.640644, 99.09643)" fill="none" stroke-linejoin="round" d="M 1441.679205 3252.848358 C 1441.679205 3230.430496 1459.780472 3212.264298 1482.358395 3212.264298 C 1504.741682 3212.264298 1522.842948 3230.430496 1522.842948 3252.848358 C 1522.842948 3275.26622 1504.741682 3293.432418 1482.358395 3293.432418 C 1459.780472 3293.432418 1441.679205 3275.26622 1441.679205 3252.848358 Z M 1441.679205 3252.848358 " stroke="#181821" stroke-width="28" stroke-opacity="1" stroke-miterlimit="10"/><g clip-path="url(#fdc8938dcf)"><path stroke-linecap="round" transform="matrix(0.0200694, 0, 0, -0.0202127, -20.640644, 99.09643)" fill="none" stroke-linejoin="round" d="M 1058.82769 2871.164938 C 1058.82769 2848.747076 1077.123594 2830.580878 1099.50688 2830.580878 C 1121.890166 2830.580878 1139.991433 2848.747076 1139.991433 2871.164938 C 1139.991433 2893.582799 1121.890166 2911.748998 1099.50688 2911.748998 C 1077.123594 2911.748998 1058.82769 2893.582799 1058.82769 2871.164938 Z M 1058.82769 2871.164938 " stroke="#181821" stroke-width="28" stroke-opacity="1" stroke-miterlimit="10"/></g><g clip-path="url(#46cd685b9e)"><path stroke-linecap="round" transform="matrix(0.0200694, 0, 0, -0.0202127, -20.640644, 99.09643)" fill="none" stroke-linejoin="round" d="M 1058.82769 2681.579401 C 1058.82769 2659.161539 1077.123594 2640.995341 1099.50688 2640.995341 C 1121.890166 2640.995341 1139.991433 2659.161539 1139.991433 2681.579401 C 1139.991433 2703.997263 1121.890166 2722.163461 1099.50688 2722.163461 C 1077.123594 2722.163461 1058.82769 2703.997263 1058.82769 2681.579401 Z M 1058.82769 2681.579401 " stroke="#181821" stroke-width="28" stroke-opacity="1" stroke-miterlimit="10"/></g><path stroke-linecap="round" transform="matrix(0.0200694, 0, 0, -0.0202127, -20.640644, 99.09643)" fill="none" stroke-linejoin="round" d="M 1180.475985 2456.047983 C 1180.475985 2433.630121 1198.577252 2415.463923 1220.960538 2415.463923 C 1243.538462 2415.463923 1261.639728 2433.630121 1261.639728 2456.047983 C 1261.639728 2478.465844 1243.538462 2496.632042 1220.960538 2496.632042 C 1198.577252 2496.632042 1180.475985 2478.465844 1180.475985 2456.047983 Z M 1180.475985 2456.047983 " stroke="#181821" stroke-width="28" stroke-opacity="1" stroke-miterlimit="10"/><path stroke-linecap="round" transform="matrix(0.0200694, 0, 0, -0.0202127, -20.640644, 99.09643)" fill="none" stroke-linejoin="round" d="M 1277.21071 1404.147802 C 1277.21071 1381.72994 1295.506613 1363.563742 1317.8899 1363.563742 C 1340.273186 1363.563742 1358.374453 1381.72994 1358.374453 1404.147802 C 1358.374453 1426.565664 1340.273186 1444.731862 1317.8899 1444.731862 C 1295.506613 1444.731862 1277.21071 1426.565664 1277.21071 1404.147802 Z M 1277.21071 1404.147802 " stroke="#181821" stroke-width="28" stroke-opacity="1" stroke-miterlimit="10"/><path stroke-linecap="round" transform="matrix(0.0200694, 0, 0, -0.0202127, -20.640644, 99.09643)" fill="none" stroke-linejoin="round" d="M 1257.94162 1692.10137 C 1257.94162 1669.683508 1276.237523 1651.51731 1298.62081 1651.51731 C 1321.004096 1651.51731 1339.105363 1669.683508 1339.105363 1692.10137 C 1339.105363 1714.712489 1321.004096 1732.68543 1298.62081 1732.68543 C 1276.237523 1732.68543 1257.94162 1714.712489 1257.94162 1692.10137 Z M 1257.94162 1692.10137 " stroke="#181821" stroke-width="28" stroke-opacity="1" stroke-miterlimit="10"/><path stroke-linecap="round" transform="matrix(0.0200694, 0, 0, -0.0202127, -20.640644, 99.09643)" fill="none" stroke-linejoin="round" d="M 1328.400313 999.27349 C 1328.400313 976.855629 1346.501579 958.689431 1368.884865 958.689431 C 1391.462789 958.689431 1409.564055 976.855629 1409.564055 999.27349 C 1409.564055 1021.691352 1391.462789 1039.85755 1368.884865 1039.85755 C 1346.501579 1039.85755 1328.400313 1021.691352 1328.400313 999.27349 Z M 1328.400313 999.27349 " stroke="#181821" stroke-width="28" stroke-opacity="1" stroke-miterlimit="10"/><path stroke-linecap="round" transform="matrix(0.0200694, 0, 0, -0.0202127, -20.640644, 99.09643)" fill="none" stroke-linejoin="round" d="M 1647.410802 1102.086442 C 1647.410802 1079.668581 1665.706706 1061.502382 1688.089992 1061.502382 C 1710.473279 1061.502382 1728.574545 1079.668581 1728.574545 1102.086442 C 1728.574545 1124.504304 1710.473279 1142.670502 1688.089992 1142.670502 C 1665.706706 1142.670502 1647.410802 1124.504304 1647.410802 1102.086442 Z M 1647.410802 1102.086442 " stroke="#181821" stroke-width="28" stroke-opacity="1" stroke-miterlimit="10"/><path stroke-linecap="round" transform="matrix(0.0200694, 0, 0, -0.0202127, -20.640644, 99.09643)" fill="none" stroke-linejoin="round" d="M 1940.14526 2604.083172 L 1657.921215 2886.432275 L 1657.921215 3076.211069 L 1512.72181 3221.347397 " stroke="#181821" stroke-width="28" stroke-opacity="1" stroke-miterlimit="10"/><path fill="#4f46e5" d="M 17.765625 81.9375 L 35.449219 53.339844 L 24.359375 53.339844 L 30.890625 30.3125 L 8.605469 59.539062 L 24.519531 59.539062 L 17.765625 81.9375 " fill-opacity="1" fill-rule="nonzero"/><g clip-path="url(#e914ae5741)"><path stroke-linecap="round" transform="matrix(0.0200694, 0, 0, -0.0202127, -20.640644, 99.09643)" fill="none" stroke-linejoin="round" d="M 1913.674591 848.919212 L 2794.797525 2263.756842 L 2242.222308 2263.756842 L 2567.655827 3403.00938 L 1457.250187 1957.057304 L 2250.202436 1957.057304 L 1913.674591 848.919212 " stroke="#181821" stroke-width="28" stroke-opacity="1" stroke-miterlimit="10"/></g><path stroke-linecap="round" transform="matrix(0.0200694, 0, 0, -0.0202127, -20.640644, 99.09643)" fill="none" stroke-linejoin="round" d="M 1712.808926 2033.780502 L 2196.677186 2033.780502 " stroke="#181821" stroke-width="28" stroke-opacity="1" stroke-miterlimit="10"/><path fill="#a855f7" d="M 24.941406 57.988281 C 24.941406 58.214844 24.757812 58.398438 24.535156 58.398438 C 24.3125 58.398438 24.128906 58.214844 24.128906 57.988281 C 24.128906 57.761719 24.3125 57.578125 24.535156 57.578125 C 24.757812 57.578125 24.941406 57.761719 24.941406 57.988281 " fill-opacity="1" fill-rule="nonzero"/><g fill="#000000" fill-opacity="1"><g transform="translate(48.494049, 74.207162)"><g><path d="M 32.53125 -21.8125 L 25.359375 -21.8125 C 25.085938 -23.664062 24.300781 -25.117188 23 -26.171875 C 21.695312 -27.222656 20.070312 -27.75 18.125 -27.75 C 15.53125 -27.75 13.445312 -26.796875 11.875 -24.890625 C 10.300781 -22.984375 9.515625 -20.28125 9.515625 -16.78125 C 9.515625 -13.195312 10.304688 -10.472656 11.890625 -8.609375 C 13.472656 -6.742188 15.535156 -5.8125 18.078125 -5.8125 C 19.972656 -5.8125 21.570312 -6.304688 22.875 -7.296875 C 24.1875 -8.285156 25.015625 -9.675781 25.359375 -11.46875 L 32.53125 -11.4375 C 32.28125 -9.382812 31.546875 -7.453125 30.328125 -5.640625 C 29.117188 -3.828125 27.472656 -2.359375 25.390625 -1.234375 C 23.316406 -0.109375 20.84375 0.453125 17.96875 0.453125 C 14.96875 0.453125 12.289062 -0.222656 9.9375 -1.578125 C 7.582031 -2.929688 5.722656 -4.890625 4.359375 -7.453125 C 3.003906 -10.023438 2.328125 -13.132812 2.328125 -16.78125 C 2.328125 -20.445312 3.015625 -23.5625 4.390625 -26.125 C 5.765625 -28.695312 7.628906 -30.65625 9.984375 -32 C 12.347656 -33.351562 15.007812 -34.03125 17.96875 -34.03125 C 20.550781 -34.03125 22.882812 -33.550781 24.96875 -32.59375 C 27.050781 -31.632812 28.753906 -30.242188 30.078125 -28.421875 C 31.410156 -26.609375 32.226562 -24.40625 32.53125 -21.8125 Z M 32.53125 -21.8125 "/></g></g></g><g fill="#000000" fill-opacity="1"><g transform="translate(83.21391, 74.207162)"><g><path d="M 9.765625 -33.5625 L 9.765625 0 L 2.78125 0 L 2.78125 -33.5625 Z M 9.765625 -33.5625 "/></g></g></g><g fill="#000000" fill-opacity="1"><g transform="translate(95.770762, 74.207162)"><g><path d="M 14.265625 0.484375 C 11.679688 0.484375 9.453125 -0.0390625 7.578125 -1.09375 C 5.710938 -2.144531 4.273438 -3.640625 3.265625 -5.578125 C 2.265625 -7.515625 1.765625 -9.8125 1.765625 -12.46875 C 1.765625 -15.0625 2.265625 -17.332031 3.265625 -19.28125 C 4.273438 -21.238281 5.695312 -22.765625 7.53125 -23.859375 C 9.363281 -24.953125 11.515625 -25.5 13.984375 -25.5 C 16.203125 -25.5 18.203125 -25.03125 19.984375 -24.09375 C 21.773438 -23.15625 23.191406 -21.738281 24.234375 -19.84375 C 25.285156 -17.945312 25.8125 -15.570312 25.8125 -12.71875 L 25.8125 -10.796875 L 8.671875 -10.796875 L 8.671875 -10.78125 C 8.671875 -8.90625 9.179688 -7.425781 10.203125 -6.34375 C 11.234375 -5.257812 12.625 -4.71875 14.375 -4.71875 C 15.539062 -4.71875 16.550781 -4.960938 17.40625 -5.453125 C 18.257812 -5.953125 18.859375 -6.679688 19.203125 -7.640625 L 25.671875 -7.21875 C 25.179688 -4.875 23.9375 -3.003906 21.9375 -1.609375 C 19.9375 -0.210938 17.378906 0.484375 14.265625 0.484375 Z M 8.671875 -15.125 L 19.25 -15.125 C 19.226562 -16.625 18.742188 -17.859375 17.796875 -18.828125 C 16.847656 -19.804688 15.613281 -20.296875 14.09375 -20.296875 C 12.539062 -20.296875 11.265625 -19.789062 10.265625 -18.78125 C 9.273438 -17.78125 8.742188 -16.5625 8.671875 -15.125 Z M 8.671875 -15.125 "/></g></g></g><g fill="#000000" fill-opacity="1"><g transform="translate(123.359776, 74.207162)"><g><path d="M 9.96875 0.46875 C 7.5625 0.46875 5.566406 -0.15625 3.984375 -1.40625 C 2.398438 -2.664062 1.609375 -4.539062 1.609375 -7.03125 C 1.609375 -8.90625 2.050781 -10.378906 2.9375 -11.453125 C 3.820312 -12.523438 4.984375 -13.3125 6.421875 -13.8125 C 7.859375 -14.3125 9.40625 -14.632812 11.0625 -14.78125 C 13.25 -15 14.8125 -15.226562 15.75 -15.46875 C 16.6875 -15.707031 17.15625 -16.234375 17.15625 -17.046875 L 17.15625 -17.140625 C 17.15625 -18.179688 16.828125 -18.984375 16.171875 -19.546875 C 15.523438 -20.117188 14.609375 -20.40625 13.421875 -20.40625 C 12.171875 -20.40625 11.171875 -20.128906 10.421875 -19.578125 C 9.679688 -19.035156 9.191406 -18.34375 8.953125 -17.5 L 2.484375 -18.03125 C 2.972656 -20.320312 4.171875 -22.140625 6.078125 -23.484375 C 7.984375 -24.828125 10.441406 -25.5 13.453125 -25.5 C 15.328125 -25.5 17.078125 -25.203125 18.703125 -24.609375 C 20.328125 -24.023438 21.640625 -23.109375 22.640625 -21.859375 C 23.640625 -20.609375 24.140625 -18.984375 24.140625 -16.984375 L 24.140625 0 L 17.515625 0 L 17.515625 -3.484375 L 17.328125 -3.484375 C 16.710938 -2.316406 15.796875 -1.363281 14.578125 -0.625 C 13.359375 0.101562 11.820312 0.46875 9.96875 0.46875 Z M 11.96875 -4.34375 C 13.5 -4.34375 14.753906 -4.785156 15.734375 -5.671875 C 16.710938 -6.566406 17.203125 -7.675781 17.203125 -9 L 17.203125 -11.671875 C 16.929688 -11.484375 16.507812 -11.316406 15.9375 -11.171875 C 15.363281 -11.035156 14.75 -10.914062 14.09375 -10.8125 C 13.445312 -10.707031 12.867188 -10.617188 12.359375 -10.546875 C 11.128906 -10.367188 10.140625 -10.019531 9.390625 -9.5 C 8.648438 -8.988281 8.28125 -8.242188 8.28125 -7.265625 C 8.28125 -6.296875 8.625 -5.566406 9.3125 -5.078125 C 10.007812 -4.585938 10.894531 -4.34375 11.96875 -4.34375 Z M 11.96875 -4.34375 "/></g></g></g><g fill="#000000" fill-opacity="1"><g transform="translate(150.145551, 74.207162)"><g><path d="M 2.78125 0 L 2.78125 -25.171875 L 9.5625 -25.171875 L 9.5625 -20.78125 L 9.8125 -20.78125 C 10.269531 -22.34375 11.035156 -23.523438 12.109375 -24.328125 C 13.191406 -25.128906 14.441406 -25.53125 15.859375 -25.53125 C 16.535156 -25.53125 17.164062 -25.445312 17.75 -25.28125 C 18.332031 -25.125 18.851562 -24.90625 19.3125 -24.625 L 17.203125 -18.84375 C 16.878906 -19.007812 16.523438 -19.148438 16.140625 -19.265625 C 15.753906 -19.378906 15.316406 -19.4375 14.828125 -19.4375 C 13.421875 -19.4375 12.226562 -18.957031 11.25 -18 C 10.269531 -17.039062 9.773438 -15.789062 9.765625 -14.25 L 9.765625 0 Z M 2.78125 0 "/></g></g></g><g fill="#000000" fill-opacity="1"><g transform="translate(169.931616, 74.207162)"><g><path d="M 6.84375 9.796875 C 5.851562 9.796875 5.003906 9.710938 4.296875 9.546875 C 3.597656 9.378906 3.050781 9.207031 2.65625 9.03125 L 4.234375 3.625 C 5.460938 3.988281 6.5 4.082031 7.34375 3.90625 C 8.195312 3.738281 8.867188 3.082031 9.359375 1.9375 L 9.8125 0.71875 L 0.78125 -25.171875 L 8.125 -25.171875 L 13.34375 -6.6875 L 13.609375 -6.6875 L 18.859375 -25.171875 L 26.265625 -25.171875 L 16.421875 2.890625 C 15.710938 4.898438 14.578125 6.550781 13.015625 7.84375 C 11.460938 9.144531 9.40625 9.796875 6.84375 9.796875 Z M 6.84375 9.796875 "/></g></g></g><g fill="#000000" fill-opacity="1"><g transform="translate(196.979667, 74.207162)"><g><path d="M 16.5625 -25.171875 L 16.5625 -19.9375 L 11.5625 -19.9375 L 11.5625 0 L 4.578125 0 L 4.578125 -19.9375 L 1.015625 -19.9375 L 1.015625 -25.171875 L 4.578125 -25.171875 L 4.578125 -27 C 4.578125 -29.738281 5.359375 -31.78125 6.921875 -33.125 C 8.492188 -34.46875 10.460938 -35.140625 12.828125 -35.140625 C 13.898438 -35.140625 14.878906 -35.054688 15.765625 -34.890625 C 16.660156 -34.734375 17.328125 -34.585938 17.765625 -34.453125 L 16.53125 -29.203125 C 16.257812 -29.296875 15.921875 -29.378906 15.515625 -29.453125 C 15.117188 -29.523438 14.710938 -29.5625 14.296875 -29.5625 C 13.265625 -29.5625 12.550781 -29.320312 12.15625 -28.84375 C 11.757812 -28.375 11.5625 -27.710938 11.5625 -26.859375 L 11.5625 -25.171875 Z M 16.5625 -25.171875 "/></g></g></g><g fill="#000000" fill-opacity="1"><g transform="translate(215.011706, 74.207162)"><g><path d="M 8.703125 0 L 1.09375 0 L 12.6875 -33.5625 L 21.828125 -33.5625 L 33.40625 0 L 25.796875 0 L 23.3125 -7.65625 L 11.1875 -7.65625 Z M 13 -13.1875 L 21.515625 -13.1875 L 17.390625 -25.890625 L 17.125 -25.890625 Z M 13 -13.1875 "/></g></g></g><g fill="#000000" fill-opacity="1"><g transform="translate(249.534868, 74.207162)"><g><path d="M 2.78125 0 L 2.78125 -25.171875 L 9.765625 -25.171875 L 9.765625 0 Z M 6.296875 -28.421875 C 5.265625 -28.421875 4.378906 -28.765625 3.640625 -29.453125 C 2.898438 -30.148438 2.53125 -30.988281 2.53125 -31.96875 C 2.53125 -32.9375 2.898438 -33.765625 3.640625 -34.453125 C 4.378906 -35.140625 5.265625 -35.484375 6.296875 -35.484375 C 7.335938 -35.484375 8.226562 -35.140625 8.96875 -34.453125 C 9.707031 -33.765625 10.078125 -32.9375 10.078125 -31.96875 C 10.078125 -30.988281 9.707031 -30.148438 8.96875 -29.453125 C 8.226562 -28.765625 7.335938 -28.421875 6.296875 -28.421875 Z M 6.296875 -28.421875 "/></g></g></g></svg>