<svg xmlns="http://www.w3.org/2000/svg" xmlns:xlink="http://www.w3.org/1999/xlink" width="200" zoomAndPan="magnify" viewBox="0 0 150 149.999998" height="200" preserveAspectRatio="xMidYMid meet" version="1.0"><defs><clipPath id="abfca505ea"><path d="M 131 28 L 137.660156 28 L 137.660156 36 L 131 36 Z M 131 28 " clip-rule="nonzero"/></clipPath><clipPath id="d6b47f8812"><path d="M 131 39 L 137.660156 39 L 137.660156 46 L 131 46 Z M 131 39 " clip-rule="nonzero"/></clipPath><clipPath id="0416f2348f"><path d="M 12.410156 28 L 19 28 L 19 36 L 12.410156 36 Z M 12.410156 28 " clip-rule="nonzero"/></clipPath><clipPath id="afa0be51e5"><path d="M 12.410156 39 L 19 39 L 19 46 L 12.410156 46 Z M 12.410156 39 " clip-rule="nonzero"/></clipPath></defs><path stroke-linecap="round" transform="matrix(0.0579325, 0, 0, -0.0578999, -48.130342, 198.095278)" fill="none" stroke-linejoin="round" d="M 1938.164972 1983.849928 L 2311.781545 1983.849928 L 2311.781545 2173.15817 L 1938.164972 2173.15817 Z M 1938.164972 1983.849928 " stroke="#181821" stroke-width="28" stroke-opacity="1" stroke-miterlimit="10"/><path stroke-linecap="round" transform="matrix(0.0579325, 0, 0, -0.0578999, -48.130342, 198.095278)" fill="none" stroke-linejoin="round" d="M 2426.273683 2091.120101 L 2426.273683 2427.435706 L 2680.341044 2681.510845 L 3084.637194 2681.510845 " stroke="#181821" stroke-width="28" stroke-opacity="1" stroke-miterlimit="10"/><path stroke-linecap="round" transform="matrix(0.0579325, 0, 0, -0.0578999, -48.130342, 198.095278)" fill="none" stroke-linejoin="round" d="M 2311.781545 2091.120101 L 2755.455439 2091.120101 L 2755.455439 2456.108551 L 2962.997725 2456.108551 " stroke="#181821" stroke-width="28" stroke-opacity="1" stroke-miterlimit="10"/><path stroke-linecap="round" transform="matrix(0.0579325, 0, 0, -0.0578999, -48.130342, 198.095278)" fill="none" stroke-linejoin="round" d="M 2368.960186 2091.120101 L 2755.455439 1692.196495 L 2912.831558 1692.196495 " stroke="#181821" stroke-width="28" stroke-opacity="1" stroke-miterlimit="10"/><path stroke-linecap="round" transform="matrix(0.0579325, 0, 0, -0.0578999, -48.130342, 198.095278)" fill="none" stroke-linejoin="round" d="M 2573.535657 1880.020496 L 2573.535657 1404.186201 L 2877.094907 1404.186201 " stroke="#181821" stroke-width="28" stroke-opacity="1" stroke-miterlimit="10"/><path stroke-linecap="round" transform="matrix(0.0579325, 0, 0, -0.0578999, -48.130342, 198.095278)" fill="none" stroke-linejoin="round" d="M 2313.33238 1983.849928 L 2313.33238 1368.362011 L 2539.147558 1142.622389 " stroke="#181821" stroke-width="28" stroke-opacity="1" stroke-miterlimit="10"/><path stroke-linecap="round" transform="matrix(0.0579325, 0, 0, -0.0578999, -48.130342, 198.095278)" fill="none" stroke-linejoin="round" d="M 2311.781545 2173.15817 L 2311.781545 2899.154604 " stroke="#181821" stroke-width="28" stroke-opacity="1" stroke-miterlimit="10"/><path stroke-linecap="round" transform="matrix(0.0579325, 0, 0, -0.0578999, -48.130342, 198.095278)" fill="none" stroke-linejoin="round" d="M 2691.062039 1404.186201 L 2691.062039 1189.510924 L 2848.505587 1032.046406 " stroke="#181821" stroke-width="28" stroke-opacity="1" stroke-miterlimit="10"/><path stroke-linecap="round" transform="matrix(0.0579325, 0, 0, -0.0578999, -48.130342, 198.095278)" fill="none" stroke-linejoin="round" d="M 2725.315282 2681.510845 L 2915.056671 2871.291346 L 3084.637194 2871.291346 " stroke="#181821" stroke-width="28" stroke-opacity="1" stroke-miterlimit="10"/><path stroke-linecap="round" transform="matrix(0.0579325, 0, 0, -0.0578999, -48.130342, 198.095278)" fill="none" stroke-linejoin="round" d="M 2352.372986 2939.70138 C 2352.372986 2917.302829 2334.167522 2899.154604 2311.781545 2899.154604 C 2289.395567 2899.154604 2271.190103 2917.302829 2271.190103 2939.70138 C 2271.190103 2962.099932 2289.395567 2980.248157 2311.781545 2980.248157 C 2334.167522 2980.248157 2352.372986 2962.099932 2352.372986 2939.70138 Z M 2352.372986 2939.70138 " stroke="#181821" stroke-width="28" stroke-opacity="1" stroke-miterlimit="10"/><path stroke-linecap="round" transform="matrix(0.0579325, 0, 0, -0.0578999, -48.130342, 198.095278)" fill="none" stroke-linejoin="round" d="M 2810.34154 3252.808847 C 2810.34154 3230.34283 2792.136077 3212.194606 2769.750099 3212.194606 C 2747.364121 3212.194606 2729.158658 3230.34283 2729.158658 3252.808847 C 2729.158658 3275.207399 2747.364121 3293.355623 2769.750099 3293.355623 C 2792.136077 3293.355623 2810.34154 3275.207399 2810.34154 3252.808847 Z M 2810.34154 3252.808847 " stroke="#181821" stroke-width="28" stroke-opacity="1" stroke-miterlimit="10"/><g clip-path="url(#abfca505ea)"><path stroke-linecap="round" transform="matrix(0.0579325, 0, 0, -0.0578999, -48.130342, 198.095278)" fill="none" stroke-linejoin="round" d="M 3193.1957 2871.156415 C 3193.1957 2848.690397 3174.990236 2830.542173 3152.604258 2830.542173 C 3130.218281 2830.542173 3112.012817 2848.690397 3112.012817 2871.156415 C 3112.012817 2893.554966 3130.218281 2911.703191 3152.604258 2911.703191 C 3174.990236 2911.703191 3193.1957 2893.554966 3193.1957 2871.156415 Z M 3193.1957 2871.156415 " stroke="#181821" stroke-width="28" stroke-opacity="1" stroke-miterlimit="10"/></g><g clip-path="url(#d6b47f8812)"><path stroke-linecap="round" transform="matrix(0.0579325, 0, 0, -0.0578999, -48.130342, 198.095278)" fill="none" stroke-linejoin="round" d="M 3193.1957 2681.510845 C 3193.1957 2659.044827 3174.990236 2640.964069 3152.604258 2640.964069 C 3130.218281 2640.964069 3112.012817 2659.044827 3112.012817 2681.510845 C 3112.012817 2703.909397 3130.218281 2722.057621 3152.604258 2722.057621 C 3174.990236 2722.057621 3193.1957 2703.909397 3193.1957 2681.510845 Z M 3193.1957 2681.510845 " stroke="#181821" stroke-width="28" stroke-opacity="1" stroke-miterlimit="10"/></g><path stroke-linecap="round" transform="matrix(0.0579325, 0, 0, -0.0578999, -48.130342, 198.095278)" fill="none" stroke-linejoin="round" d="M 3071.488803 2456.108551 C 3071.488803 2433.709999 3053.350767 2415.494309 3030.96479 2415.494309 C 3008.578812 2415.494309 2990.373348 2433.709999 2990.373348 2456.108551 C 2990.373348 2478.507102 3008.578812 2496.655327 3030.96479 2496.655327 C 3053.350767 2496.655327 3071.488803 2478.507102 3071.488803 2456.108551 Z M 3071.488803 2456.108551 " stroke="#181821" stroke-width="28" stroke-opacity="1" stroke-miterlimit="10"/><path stroke-linecap="round" transform="matrix(0.0579325, 0, 0, -0.0578999, -48.130342, 198.095278)" fill="none" stroke-linejoin="round" d="M 2974.730135 1404.186201 C 2974.730135 1381.787649 2956.592099 1363.571959 2934.138694 1363.571959 C 2911.752716 1363.571959 2893.61468 1381.787649 2893.61468 1404.186201 C 2893.61468 1426.584753 2911.752716 1444.732977 2934.138694 1444.732977 C 2956.592099 1444.732977 2974.730135 1426.584753 2974.730135 1404.186201 Z M 2974.730135 1404.186201 " stroke="#181821" stroke-width="28" stroke-opacity="1" stroke-miterlimit="10"/><path stroke-linecap="round" transform="matrix(0.0579325, 0, 0, -0.0578999, -48.130342, 198.095278)" fill="none" stroke-linejoin="round" d="M 2994.014441 1692.196495 C 2994.014441 1669.797944 2975.876405 1651.582254 2953.423 1651.582254 C 2931.037022 1651.582254 2912.831558 1669.797944 2912.831558 1692.196495 C 2912.831558 1714.595047 2931.037022 1732.743271 2953.423 1732.743271 C 2975.876405 1732.743271 2994.014441 1714.595047 2994.014441 1692.196495 Z M 2994.014441 1692.196495 " stroke="#181821" stroke-width="28" stroke-opacity="1" stroke-miterlimit="10"/><path stroke-linecap="round" transform="matrix(0.0579325, 0, 0, -0.0578999, -48.130342, 198.095278)" fill="none" stroke-linejoin="round" d="M 2923.619981 999.258165 C 2923.619981 976.792147 2905.481945 958.643923 2883.095968 958.643923 C 2860.642562 958.643923 2842.437099 976.792147 2842.437099 999.258165 C 2842.437099 1021.656716 2860.642562 1039.804941 2883.095968 1039.804941 C 2905.481945 1039.804941 2923.619981 1021.656716 2923.619981 999.258165 Z M 2923.619981 999.258165 " stroke="#181821" stroke-width="28" stroke-opacity="1" stroke-miterlimit="10"/><path stroke-linecap="round" transform="matrix(0.0579325, 0, 0, -0.0578999, -48.130342, 198.095278)" fill="none" stroke-linejoin="round" d="M 2604.552373 1102.008148 C 2604.552373 1079.609596 2586.414336 1061.461372 2563.960931 1061.461372 C 2541.574954 1061.461372 2523.504345 1079.609596 2523.504345 1102.008148 C 2523.504345 1124.474165 2541.574954 1142.622389 2563.960931 1142.622389 C 2586.414336 1142.622389 2604.552373 1124.474165 2604.552373 1102.008148 Z M 2604.552373 1102.008148 " stroke="#181821" stroke-width="28" stroke-opacity="1" stroke-miterlimit="10"/><path stroke-linecap="round" transform="matrix(0.0579325, 0, 0, -0.0578999, -48.130342, 198.095278)" fill="none" stroke-linejoin="round" d="M 2311.781545 2603.992965 L 2594.168515 2886.336156 L 2594.168515 3076.251588 L 2739.205376 3221.302451 " stroke="#181821" stroke-width="28" stroke-opacity="1" stroke-miterlimit="10"/><path stroke-linecap="round" transform="matrix(0.0579325, 0, 0, -0.0578999, -48.130342, 198.095278)" fill="none" stroke-linejoin="round" d="M 1825.763091 2091.120101 L 1825.763091 2427.435706 L 1571.69573 2681.510845 L 1167.39958 2681.510845 " stroke="#181821" stroke-width="28" stroke-opacity="1" stroke-miterlimit="10"/><path stroke-linecap="round" transform="matrix(0.0579325, 0, 0, -0.0578999, -48.130342, 198.095278)" fill="none" stroke-linejoin="round" d="M 1940.255229 2091.120101 L 1496.581335 2091.120101 L 1496.581335 2456.108551 L 1289.039049 2456.108551 " stroke="#181821" stroke-width="28" stroke-opacity="1" stroke-miterlimit="10"/><path stroke-linecap="round" transform="matrix(0.0579325, 0, 0, -0.0578999, -48.130342, 198.095278)" fill="none" stroke-linejoin="round" d="M 1883.00916 2091.120101 L 1496.581335 1692.196495 L 1339.137788 1692.196495 " stroke="#181821" stroke-width="28" stroke-opacity="1" stroke-miterlimit="10"/><path stroke-linecap="round" transform="matrix(0.0579325, 0, 0, -0.0578999, -48.130342, 198.095278)" fill="none" stroke-linejoin="round" d="M 1678.501117 1880.020496 L 1678.501117 1404.186201 L 1374.941867 1404.186201 " stroke="#181821" stroke-width="28" stroke-opacity="1" stroke-miterlimit="10"/><path stroke-linecap="round" transform="matrix(0.0579325, 0, 0, -0.0578999, -48.130342, 198.095278)" fill="none" stroke-linejoin="round" d="M 1938.636966 1983.849928 L 1938.636966 1368.362011 L 1712.821788 1142.622389 " stroke="#181821" stroke-width="28" stroke-opacity="1" stroke-miterlimit="10"/><path stroke-linecap="round" transform="matrix(0.0579325, 0, 0, -0.0578999, -48.130342, 198.095278)" fill="none" stroke-linejoin="round" d="M 1940.255229 2173.15817 L 1940.255229 2899.154604 " stroke="#181821" stroke-width="28" stroke-opacity="1" stroke-miterlimit="10"/><path stroke-linecap="round" transform="matrix(0.0579325, 0, 0, -0.0578999, -48.130342, 198.095278)" fill="none" stroke-linejoin="round" d="M 1560.974735 1404.186201 L 1560.974735 1189.510924 L 1403.531187 1032.046406 " stroke="#181821" stroke-width="28" stroke-opacity="1" stroke-miterlimit="10"/><path stroke-linecap="round" transform="matrix(0.0579325, 0, 0, -0.0578999, -48.130342, 198.095278)" fill="none" stroke-linejoin="round" d="M 1526.721492 2681.510845 L 1336.912676 2871.291346 L 1167.39958 2871.291346 " stroke="#181821" stroke-width="28" stroke-opacity="1" stroke-miterlimit="10"/><path stroke-linecap="round" transform="matrix(0.0579325, 0, 0, -0.0578999, -48.130342, 198.095278)" fill="none" stroke-linejoin="round" d="M 1899.663788 2939.70138 C 1899.663788 2917.302829 1917.869252 2899.154604 1940.255229 2899.154604 C 1962.641207 2899.154604 1980.846671 2917.302829 1980.846671 2939.70138 C 1980.846671 2962.099932 1962.641207 2980.248157 1940.255229 2980.248157 C 1917.869252 2980.248157 1899.663788 2962.099932 1899.663788 2939.70138 Z M 1899.663788 2939.70138 " stroke="#181821" stroke-width="28" stroke-opacity="1" stroke-miterlimit="10"/><path stroke-linecap="round" transform="matrix(0.0579325, 0, 0, -0.0578999, -48.130342, 198.095278)" fill="none" stroke-linejoin="round" d="M 1441.695234 3252.808847 C 1441.695234 3230.34283 1459.83327 3212.194606 1482.286675 3212.194606 C 1504.672653 3212.194606 1522.810689 3230.34283 1522.810689 3252.808847 C 1522.810689 3275.207399 1504.672653 3293.355623 1482.286675 3293.355623 C 1459.83327 3293.355623 1441.695234 3275.207399 1441.695234 3252.808847 Z M 1441.695234 3252.808847 " stroke="#181821" stroke-width="28" stroke-opacity="1" stroke-miterlimit="10"/><g clip-path="url(#0416f2348f)"><path stroke-linecap="round" transform="matrix(0.0579325, 0, 0, -0.0578999, -48.130342, 198.095278)" fill="none" stroke-linejoin="round" d="M 1058.841074 2871.156415 C 1058.841074 2848.690397 1077.046538 2830.542173 1099.432515 2830.542173 C 1121.818493 2830.542173 1140.023957 2848.690397 1140.023957 2871.156415 C 1140.023957 2893.554966 1121.818493 2911.703191 1099.432515 2911.703191 C 1077.046538 2911.703191 1058.841074 2893.554966 1058.841074 2871.156415 Z M 1058.841074 2871.156415 " stroke="#181821" stroke-width="28" stroke-opacity="1" stroke-miterlimit="10"/></g><g clip-path="url(#afa0be51e5)"><path stroke-linecap="round" transform="matrix(0.0579325, 0, 0, -0.0578999, -48.130342, 198.095278)" fill="none" stroke-linejoin="round" d="M 1058.841074 2681.510845 C 1058.841074 2659.044827 1077.046538 2640.964069 1099.432515 2640.964069 C 1121.818493 2640.964069 1140.023957 2659.044827 1140.023957 2681.510845 C 1140.023957 2703.909397 1121.818493 2722.057621 1099.432515 2722.057621 C 1077.046538 2722.057621 1058.841074 2703.909397 1058.841074 2681.510845 Z M 1058.841074 2681.510845 " stroke="#181821" stroke-width="28" stroke-opacity="1" stroke-miterlimit="10"/></g><path stroke-linecap="round" transform="matrix(0.0579325, 0, 0, -0.0578999, -48.130342, 198.095278)" fill="none" stroke-linejoin="round" d="M 1180.480543 2456.108551 C 1180.480543 2433.709999 1198.686007 2415.494309 1221.071984 2415.494309 C 1243.457962 2415.494309 1261.663426 2433.709999 1261.663426 2456.108551 C 1261.663426 2478.507102 1243.457962 2496.655327 1221.071984 2496.655327 C 1198.686007 2496.655327 1180.480543 2478.507102 1180.480543 2456.108551 Z M 1180.480543 2456.108551 " stroke="#181821" stroke-width="28" stroke-opacity="1" stroke-miterlimit="10"/><path stroke-linecap="round" transform="matrix(0.0579325, 0, 0, -0.0578999, -48.130342, 198.095278)" fill="none" stroke-linejoin="round" d="M 1277.239211 1404.186201 C 1277.239211 1381.787649 1295.444675 1363.571959 1317.830653 1363.571959 C 1340.284058 1363.571959 1358.422094 1381.787649 1358.422094 1404.186201 C 1358.422094 1426.584753 1340.284058 1444.732977 1317.830653 1444.732977 C 1295.444675 1444.732977 1277.239211 1426.584753 1277.239211 1404.186201 Z M 1277.239211 1404.186201 " stroke="#181821" stroke-width="28" stroke-opacity="1" stroke-miterlimit="10"/><path stroke-linecap="round" transform="matrix(0.0579325, 0, 0, -0.0578999, -48.130342, 198.095278)" fill="none" stroke-linejoin="round" d="M 1258.022333 1692.196495 C 1258.022333 1669.797944 1276.160369 1651.582254 1298.613774 1651.582254 C 1320.999752 1651.582254 1339.137788 1669.797944 1339.137788 1692.196495 C 1339.137788 1714.595047 1320.999752 1732.743271 1298.613774 1732.743271 C 1276.160369 1732.743271 1258.022333 1714.595047 1258.022333 1692.196495 Z M 1258.022333 1692.196495 " stroke="#181821" stroke-width="28" stroke-opacity="1" stroke-miterlimit="10"/><path stroke-linecap="round" transform="matrix(0.0579325, 0, 0, -0.0578999, -48.130342, 198.095278)" fill="none" stroke-linejoin="round" d="M 1328.416793 999.258165 C 1328.416793 976.792147 1346.554829 958.643923 1368.940806 958.643923 C 1391.394212 958.643923 1409.532248 976.792147 1409.532248 999.258165 C 1409.532248 1021.656716 1391.394212 1039.804941 1368.940806 1039.804941 C 1346.554829 1039.804941 1328.416793 1021.656716 1328.416793 999.258165 Z M 1328.416793 999.258165 " stroke="#181821" stroke-width="28" stroke-opacity="1" stroke-miterlimit="10"/><path stroke-linecap="round" transform="matrix(0.0579325, 0, 0, -0.0578999, -48.130342, 198.095278)" fill="none" stroke-linejoin="round" d="M 1647.416974 1102.008148 C 1647.416974 1079.609596 1665.622438 1061.461372 1688.008415 1061.461372 C 1710.394393 1061.461372 1728.532429 1079.609596 1728.532429 1102.008148 C 1728.532429 1124.474165 1710.394393 1142.622389 1688.008415 1142.622389 C 1665.622438 1142.622389 1647.416974 1124.474165 1647.416974 1102.008148 Z M 1647.416974 1102.008148 " stroke="#181821" stroke-width="28" stroke-opacity="1" stroke-miterlimit="10"/><path stroke-linecap="round" transform="matrix(0.0579325, 0, 0, -0.0578999, -48.130342, 198.095278)" fill="none" stroke-linejoin="round" d="M 1940.255229 2603.992965 L 1657.868259 2886.336156 L 1657.868259 3076.251588 L 1512.831397 3221.302451 " stroke="#181821" stroke-width="28" stroke-opacity="1" stroke-miterlimit="10"/><path stroke-linecap="round" transform="matrix(0.0579325, 0, 0, -0.0578999, -48.130342, 198.095278)" fill-opacity="1" fill="#4f46e5" fill-rule="nonzero" stroke-linejoin="round" d="M 1913.756165 848.944992 L 2794.698327 2263.696895 L 2242.128789 2263.696895 L 2567.736879 3403.122021 L 1457.271019 1957.133583 L 2250.152679 1957.133583 L 1913.756165 848.944992 " stroke="#181821" stroke-width="28" stroke-opacity="1" stroke-miterlimit="10"/><path stroke-linecap="round" transform="matrix(0.0579325, 0, 0, -0.0578999, -48.130342, 198.095278)" fill="none" stroke-linejoin="round" d="M 1712.821788 2033.774411 L 2196.749985 2033.774411 " stroke="#181821" stroke-width="28" stroke-opacity="1" stroke-miterlimit="10"/><path fill="#a855f7" d="M 83.445312 80.339844 C 83.445312 80.988281 82.921875 81.511719 82.273438 81.511719 C 81.628906 81.511719 81.101562 80.988281 81.101562 80.339844 C 81.101562 79.695312 81.628906 79.167969 82.273438 79.167969 C 82.921875 79.167969 83.445312 79.695312 83.445312 80.339844 " fill-opacity="1" fill-rule="nonzero"/></svg>